<svg xmlns="http://www.w3.org/2000/svg" width="128" height="128" viewBox="0 0 33.867 33.867"><path fill="#59d96b" d="M 16.933332,1.0583315 A 15.875001,15.875001 0 0 1 32.808333,16.933332 15.875001,15.875001 0 0 1 16.933332,32.808333 15.875001,15.875001 0 0 1 1.0583315,16.933332 15.875001,15.875001 0 0 1 16.933332,1.0583315 Z" paint-order="fill markers stroke"/><path style="line-height:normal;font-variant-ligatures:normal;font-variant-position:normal;font-variant-caps:normal;font-variant-numeric:normal;font-variant-alternates:normal;font-variant-east-asian:normal;font-feature-settings:normal;font-variation-settings:normal;text-indent:0;text-align:start;text-decoration-line:none;text-decoration-style:solid;text-decoration-color:#000;text-transform:none;text-orientation:mixed;white-space:normal;shape-padding:0;shape-margin:0;inline-size:0;isolation:auto;mix-blend-mode:normal;solid-color:#000;solid-opacity:1" fill="#59586e" d="M14.269531 9.2910156C10.510914 9.4418564 7.8886719 10.271484 7.8886719 10.271484A1.984375 1.984375 0 006.5683594 12.748047 1.984375 1.984375 0 009.0429688 14.070312C9.0429688 14.070312 18.139977 11.435665 25.441406 15.792969A1.984375 1.984375 0 0028.162109 15.105469 1.984375 1.984375 0 0027.474609 12.384766C22.923241 9.6686264 18.028149 9.1401749 14.269531 9.2910156zM14.34375 15.681641C11.219117 15.807039 9.0410156 16.498047 9.0410156 16.498047A1.64966 1.64966 0 007.9433594 18.556641 1.64966 1.64966 0 0010 19.654297C10 19.654297 17.56295 17.465554 23.632812 21.087891A1.64966 1.64966 0 0025.894531 20.515625 1.64966 1.64966 0 0025.324219 18.253906C21.540551 15.995912 17.468383 15.556243 14.34375 15.681641zM14.642578 21.386719C12.491563 21.473043 10.992188 21.947266 10.992188 21.947266A1.135635 1.135635 0 0010.236328 23.365234 1.135635 1.135635 0 0011.652344 24.121094C11.652344 24.121094 16.85858 22.613784 21.037109 25.107422A1.135635 1.135635 0 0022.59375 24.714844 1.135635 1.135635 0 0022.201172 23.15625C19.596473 21.601833 16.793594 21.300394 14.642578 21.386719z" color="#000" enable-background="accumulate" font-family="sans-serif" font-weight="400" overflow="visible" paint-order="fill markers stroke"/></svg>